<?xml version="1.0" encoding="utf-8"?>
<!-- Generator: Adobe Illustrator 27.5.0, SVG Export Plug-In . SVG Version: 6.00 Build 0)  -->
<svg version="1.1" id="Layer_1" xmlns="http://www.w3.org/2000/svg" xmlns:xlink="http://www.w3.org/1999/xlink" x="0px" y="0px"
	 viewBox="0 0 369.2 365.2" style="enable-background:new 0 0 369.2 365.2;" xml:space="preserve">
<style type="text/css">
	.st0{fill:#D9D9D9;stroke:#000000;}
	.st1{fill:none;stroke:#000000;}
	.st2{fill-rule:evenodd;clip-rule:evenodd;fill:#8253A7;}
	.st3{fill-rule:evenodd;clip-rule:evenodd;fill:#A365D2;}
	.st4{fill:#C27CF8;}
	.st5{fill:#2AFFBA;}
	.st6{fill:#FFFFFF;stroke:#FFFFFF;stroke-width:9;}
	.st7{fill-rule:evenodd;clip-rule:evenodd;fill:#5858ED;stroke:#FFFFFF;stroke-width:2;}
	.st8{fill-rule:evenodd;clip-rule:evenodd;fill:#2727C1;stroke:#FFFFFF;stroke-width:2;}
	.st9{fill:#03038D;stroke:#FFFFFF;stroke-width:2;}
</style>
<circle class="st0" cx="-1009.1" cy="-444.1" r="155.6"/>
<circle class="st1" cx="-1007.5" cy="-444.1" r="97.1"/>
<circle class="st1" cx="-1007.5" cy="-444.1" r="58"/>
<circle class="st1" cx="-1007.5" cy="-444.1" r="38.5"/>
<circle class="st1" cx="-1007.5" cy="-444.1" r="19"/>
<path class="st2" d="M-686.1-417.9c51.2-13.7,81.6-66.4,67.9-117.6c-13.7-51.2-66.4-81.6-117.6-67.9c-8.4,2.2-16.2,5.5-23.4,9.7
	c42.3,0.1,81,28.4,92.5,71.2c11.5,42.8-7.9,86.7-44.5,107.9C-703-414.6-694.5-415.7-686.1-417.9z"/>
<path class="st3" d="M-760.1-526.7c0-53,43-96,96-96c53,0,96,43,96,96c0,8.7-1.2,17.1-3.3,25.1c-11-40.9-48.4-70.9-92.7-70.9
	c-44.4,0-81.7,30.1-92.7,70.9C-758.9-509.6-760.1-518-760.1-526.7z"/>
<path class="st4" d="M-1699,866.4c-83-22.2-168.3,27-190.6,110s27,168.3,110,190.6s168.3-27,190.6-110
	C-1566.8,973.9-1616,888.6-1699,866.4z M-1739.3,1113.7c-53.6,0-97.1-43.5-97.1-97.1c0-53.6,43.5-97.1,97.1-97.1
	c53.6,0,97.1,43.5,97.1,97.1C-1642.2,1070.2-1685.7,1113.7-1739.3,1113.7z"/>
<circle class="st5" cx="-1721.6" cy="823.4" r="97.1"/>
<circle class="st5" cx="-1721.6" cy="1209.9" r="97.1"/>
<path class="st4" d="M-1999.6,1028c0-53.6,43.5-97.1,97.1-97.1c2.3,0,4.7,0.1,7,0.3c-30.1-3.3-56-20.4-71.4-44.8
	c-40.8,18.6-73.3,54.6-85.8,101.3c-20,74.6,17.8,151,85.8,181.9c15.5-24.6,41.7-41.7,72-44.9c-2.5,0.2-5,0.3-7.6,0.3
	C-1956.1,1125-1999.6,1081.6-1999.6,1028z"/>
<g>
	<path class="st4" d="M-642.5-428.5c-0.8,0-1.7,0-2.5,0c-4,0.5-8.1,0.8-12.2,0.8c-53.6,0-97.1-43.5-97.1-97.1
		c0-53.6,43.5-97.1,97.1-97.1c4.3,0,8.5,0.3,12.7,0.8c0.7,0,1.3,0,2,0c29.5,0,56-12.1,74.5-31.3c-14.5-10.1-30.9-17.9-48.9-22.7
		c-83-22.2-168.3,27-190.6,110s27,168.3,110,190.6c46.2,12.4,93,2.6,129.4-22.8C-586.6-416.5-613.1-428.5-642.5-428.5z"/>
</g>
<g>
	<path class="st6" d="M330.8,359.5H38.4c-16,0-28.9-13-28.9-28.9V38.1c0-16,13-28.9,28.9-28.9h292.5c16,0,28.9,13,28.9,28.9v292.5
		C359.8,346.5,346.8,359.5,330.8,359.5z"/>
	<g>
		<path class="st7" d="M217,254.8c31.3-30,32.3-79.6,2.4-110.8s-79.6-32.3-110.8-2.4c-5.1,4.9-9.4,10.3-12.9,16.1
			c30.3-16.6,69.1-11.5,94.2,14.6c25,26.1,28.4,65.1,10.6,94.7C206.2,263.8,211.9,259.7,217,254.8z"/>
		<path class="st8" d="M127.7,182.7c0-43.3,35.1-78.4,78.4-78.4s78.4,35.1,78.4,78.4c0,7.1-0.9,14-2.7,20.5
			c-9-33.4-39.5-57.9-75.7-57.9c-36.2,0-66.7,24.5-75.7,57.9C128.7,196.7,127.7,189.8,127.7,182.7z"/>
		<g>
			<path class="st9" d="M223.7,262.9c-0.7,0-1.4,0-2,0c-3.3,0.4-6.6,0.6-10,0.6c-43.8,0-79.2-35.5-79.2-79.2
				c0-43.8,35.5-79.2,79.2-79.2c3.5,0,7,0.2,10.3,0.7c0.5,0,1.1,0,1.6,0c24.1,0,45.7-9.9,60.8-25.6c-11.8-8.3-25.2-14.6-39.9-18.6
				C176.8,43.5,107.2,83.7,89,151.5s22.1,137.4,89.8,155.6c37.7,10.1,76,2.1,105.6-18.6C269.4,272.7,247.7,262.9,223.7,262.9z"/>
		</g>
	</g>
</g>
</svg>
