<?xml version="1.0" encoding="UTF-8" standalone="no"?>
<!-- Created with Inkscape (http://www.inkscape.org/) -->

<svg
   version="1.1"
   id="svg2"
   width="133.33333"
   height="133.33333"
   viewBox="0 0 133.33333 133.33333"
   xmlns="http://www.w3.org/2000/svg"
   xmlns:svg="http://www.w3.org/2000/svg">
  <defs
     id="defs6">
    <clipPath
       clipPathUnits="userSpaceOnUse"
       id="clipPath18">
      <path
         d="M 0.722059,5.13463 H 99.2252 V 94.7733 H 0.722059 Z"
         id="path16" />
    </clipPath>
  </defs>
  <g
     id="g8"
     transform="matrix(1.3333333,0,0,-1.3333333,0,133.33333)">
    <g
       id="g10"
       transform="matrix(1,0,0,-1,0,100)">
      <g
         id="g12">
        <g
           id="g14"
           clip-path="url(#clipPath18)">
          <g
             id="g20"
             transform="translate(41.2582,37.2884)">
            <path
               d="m 0,0 c -0.5949,-0.5585 -0.6965,-1.6336 -0.0762,-2.2217 3.4917,-3.2941 6.9874,-6.5877 10.4795,-9.8858 5.9394,-5.6067 11.8803,-11.2059 17.8187,-16.8106 1.0618,-0.7696 1.8417,-2.336 3.2271,-2.4477 1.4014,-0.0442 2.1379,1.9197 0.9968,2.7743 -3.6247,3.4219 -7.2535,6.8436 -10.8822,10.2651 -4.2304,3.9894 -8.4571,7.9831 -12.6875,11.9725 -2.2165,2.09 -4.4375,4.1836 -6.6545,6.2777 C 1.6416,0.5359 0.617,0.5922 0,0 Z"
               style="fill:#000000;fill-opacity:1;fill-rule:nonzero;stroke:none"
               id="path22" />
          </g>
          <g
             id="g24"
             transform="translate(20.423,63.0021)">
            <path
               d="m 0,0 c -0.4845,-0.4519 -0.5684,-1.3278 -0.0606,-1.8076 2.8419,-2.6835 5.6884,-5.367 8.535,-8.0504 4.8358,-4.5657 9.6717,-9.1266 14.5075,-13.6923 0.3838,-0.2764 0.7218,-0.6808 1.0773,-1.0533 0.0206,0.0607 0.0422,0.1214 0.0641,0.1821 0.1072,0.2935 0.2329,0.5777 0.3634,0.8573 0.0279,0.0605 0.0652,0.1164 0.1025,0.1677 0.0838,0.2376 0.1817,0.4659 0.2655,0.6848 0.0854,0.2202 0.1796,0.4318 0.2781,0.6472 -2.523,2.3826 -5.0461,4.7626 -7.5691,7.1423 -3.4475,3.2472 -6.8904,6.4991 -10.3332,9.7509 -1.8077,1.7005 -3.6153,3.4056 -5.4182,5.1107 -0.2505,0.2628 -0.6008,0.4 -0.9497,0.4 C 0.5497,0.3394 0.2379,0.2291 0,0 Z"
               style="fill:#000000;fill-opacity:1;fill-rule:nonzero;stroke:none"
               id="path26" />
          </g>
          <g
             id="g28"
             transform="translate(2.2473,85.7301)">
            <path
               d="m 0,0 c -0.4033,-0.3786 -0.4722,-1.1075 -0.0517,-1.5063 2.3673,-2.2332 4.7373,-4.4662 7.1048,-6.7022 4.0267,-3.8012 8.0545,-7.5972 12.0805,-11.3971 0.7198,-0.5216 1.2486,-1.5836 2.1878,-1.6594 0.9501,-0.0299 1.4494,1.3015 0.6759,1.8809 -2.4575,2.3199 -4.9177,4.6397 -7.3778,6.9594 C 11.7514,-9.72 8.8858,-7.0124 6.0178,-4.3077 4.515,-2.8908 3.0093,-1.4713 1.5063,-0.0517 1.1129,0.3633 0.4183,0.4015 0,0 Z"
               style="fill:#000000;fill-opacity:1;fill-rule:nonzero;stroke:none"
               id="path30" />
          </g>
          <g
             id="g32"
             transform="translate(61.0478,62.2139)">
            <path
               d="m 0,0 c 0.4524,0.6516 1.4718,0.9023 2.1257,0.3895 3.6647,-2.8891 7.3297,-5.7821 10.9983,-8.6709 6.2371,-4.9138 12.4672,-9.8302 18.7022,-14.7433 0.8912,-0.9116 2.5085,-1.4386 2.8131,-2.755 0.242,-1.3414 -1.5418,-2.3291 -2.526,-1.3535 -3.8066,2.9988 -7.6136,6.0016 -11.4205,9.0042 -4.4384,3.5005 -8.8807,6.9968 -13.3192,10.4973 -2.3253,1.8341 -4.6548,3.672 -6.9841,5.506 C -0.2818,-1.6549 -0.4817,-0.6776 0,0 Z"
               style="fill:#000000;fill-opacity:1;fill-rule:nonzero;stroke:none"
               id="path34" />
          </g>
          <g
             id="g36"
             transform="translate(33.355,78.5883)">
            <path
               d="m 0,0 c -0.396,-0.5497 -0.2329,-1.3464 0.3168,-1.7284 1.8961,-1.4955 3.7923,-2.991 5.6884,-4.4864 3.6106,-2.8512 7.2305,-5.6978 10.8457,-8.549 3.0822,-2.4287 6.1691,-4.862 9.2513,-7.2953 0.172,0.2635 0.4186,0.4796 0.6813,0.6519 0.3261,0.2096 0.6708,0.4426 1.0249,0.6056 0.0844,0.0633 0.1742,0.1134 0.2733,0.1561 -0.4202,0.8277 -1.522,1.2392 -2.1648,1.8985 -5.0781,3.9972 -10.1515,8.0038 -15.2296,12.0057 C 7.6963,-4.3886 4.7147,-2.0359 1.7284,0.3168 1.5329,0.4712 1.2969,0.5409 1.0584,0.5409 0.6492,0.5409 0.2325,0.3355 0,0 Z"
               style="fill:#000000;fill-opacity:1;fill-rule:nonzero;stroke:none"
               id="path38" />
          </g>
          <g
             id="g40"
             transform="translate(8.9109,92.8354)">
            <path
               d="m 0,0 c 0.3067,0.4418 0.9978,0.6117 1.4412,0.2641 2.4845,-1.9587 4.9692,-3.9201 7.4565,-5.8786 4.2285,-3.3314 8.4523,-6.6645 12.6794,-9.9955 0.6042,-0.618 1.7007,-0.9753 1.9072,-1.8678 0.1641,-0.9094 -1.0453,-1.5791 -1.7125,-0.9176 -2.5808,2.0331 -5.1618,4.0689 -7.7427,6.1046 -3.0092,2.3732 -6.0209,4.7436 -9.03,7.1168 -1.5765,1.2435 -3.1559,2.4895 -4.735,3.7328 C -0.191,-1.122 -0.3265,-0.4594 0,0 Z"
               style="fill:#000000;fill-opacity:1;fill-rule:nonzero;stroke:none"
               id="path42" />
          </g>
          <g
             id="g44"
             transform="translate(61.3998,62.2734)">
            <path
               d="m 0,0 c 0,0 -0.0047,0 -0.0047,0 0,0 0,-0.0047 -0.0046,-0.0047 -0.0093,-0.0046 -0.0187,-0.0093 -0.028,-0.0139 -2.9537,-1.8076 -5.6651,-3.9973 -8.2228,-6.3314 -2.0172,-1.8402 -3.9227,-3.7969 -5.6697,-5.8933 -1.6446,-1.98 -3.0795,-4.1231 -4.3374,-6.364 -0.7873,-1.393 -1.4302,-2.8884 -1.8216,-4.4445 -0.1351,-0.5451 -0.2469,-1.1088 -0.2748,-1.6725 -0.0094,-0.3028 -0.028,-0.6895 0.0372,-1.0109 0.0885,-0.5405 0.4426,-1.0157 0.9364,-1.2533 0.4752,-0.2329 1.039,-0.2236 1.5142,0.014 0.545,0.2795 0.8572,0.8106 0.9224,1.407 0.014,0.1164 0.0047,0.2329 0,0.3494 0.0016,0.0447 0.0037,0.0894 0.0059,0.1341 -0.2209,0.4735 -0.0691,0.9291 0.0966,1.3893 0.1071,0.2935 0.2329,0.5777 0.3634,0.8572 0.0164,0.0357 0.0347,0.0697 0.0544,0.1031 0.0559,0.1542 0.1139,0.3077 0.1739,0.4606 0.1001,0.2374 0.2053,0.4727 0.3144,0.7063 0.0373,0.0843 0.0753,0.1686 0.1142,0.2535 0.0331,0.0714 0.0701,0.1434 0.1107,0.2142 0.1973,0.3988 0.4054,0.793 0.6207,1.1834 0.6662,1.1694 1.4489,2.2828 2.1198,3.1866 1.4721,1.966 3.1027,3.8203 4.6541,5.4182 1.6166,1.6586 3.3124,3.2332 5.0502,4.6262 0.4891,0.387 0.9839,0.768 1.4845,1.1415 0.151,0.1752 0.3352,0.3253 0.5281,0.4518 0.2135,0.1373 0.435,0.2824 0.6631,0.4134 0.8579,0.6055 1.7337,1.1852 2.6306,1.7297 0,0.0046 0.0047,0.0046 0.0047,0.0046 0.8339,0.5078 0.983,1.7191 0.4566,2.4878 C 2.1431,0.0559 1.6026,0.3028 1.0482,0.3028 0.6942,0.3028 0.3261,0.2003 0,0 Z"
               style="fill:#000000;fill-opacity:1;fill-rule:nonzero;stroke:none"
               id="path46" />
          </g>
          <g
             id="g48"
             transform="translate(34.3181,79.7329)">
            <path
               d="m 0,0 c -1.379,-0.1537 -2.6322,-0.9131 -3.7317,-1.7238 -1.7005,-1.2532 -3.2099,-2.7766 -4.5936,-4.3699 -1.5933,-1.8356 -3.0748,-3.8249 -4.2675,-5.9447 -0.7547,-1.337 -1.3883,-2.7393 -1.8029,-4.2208 -0.1165,-0.4054 -0.2283,-0.806 -0.1398,-1.2346 0.0018,4e-4 0.0037,8e-4 0.0055,0.0012 0.0715,-0.3446 0.2533,-0.6679 0.5443,-0.9097 0.7081,-0.587 1.6958,-0.4426 2.2921,0.2097 0.3054,0.3311 0.4202,0.8965 0.5717,1.3333 0.3685,0.918 0.8506,1.7977 1.2126,2.4729 0.7494,1.3591 1.5872,2.6858 2.4994,3.9473 0.8253,1.1144 1.7213,2.1807 2.6067,3.1248 0.6775,0.7173 1.393,1.4051 2.1543,2.0356 0.4859,0.391 0.9923,0.7607 1.5233,1.0902 0.2273,0.1344 0.458,0.2624 0.6958,0.3786 0.1796,0.0738 0.3629,0.1411 0.5486,0.2008 0.0645,0.0164 0.1283,0.0308 0.1916,0.0438 0.9564,0.1234 1.6968,0.9374 1.6137,1.9254 C 1.8542,-0.7534 1.076,0.0103 0.1807,0.0104 0.1209,0.0104 0.0607,0.007 0,0 Z"
               style="fill:#000000;fill-opacity:1;fill-rule:nonzero;stroke:none"
               id="path50" />
          </g>
          <g
             id="g52"
             transform="translate(5.8477,91.5878)">
            <path
               d="m 0,0 c -0.7081,-0.5311 -1.3697,-1.1321 -1.9707,-1.7797 -0.7174,-0.7687 -1.3883,-1.5933 -1.8449,-2.553 -0.2189,-0.4612 -0.3727,-0.9783 -0.3633,-1.4955 0.0139,-0.601 0.2189,-1.2811 0.7407,-1.6399 6e-4,0.0019 0.0013,0.0037 0.0019,0.0056 0.1696,-0.1328 0.3652,-0.2349 0.5805,-0.2944 1.0761,-0.2982 2.1244,0.5264 2.157,1.6212 0.0022,0.063 -8e-4,0.1243 -0.0077,0.1845 0.0703,0.1316 0.1445,0.2597 0.223,0.3851 0.2509,0.3634 0.5297,0.7054 0.8169,1.0357 0.33,0.3628 0.6819,0.7039 1.0469,1.0344 0.408,0.3591 0.8357,0.6942 1.2831,1.0022 0.2079,0.133 0.4189,0.2579 0.6365,0.3713 0.0765,0.0348 0.1535,0.0681 0.2322,0.0993 0.7056,-0.1003 1.4264,0.187 1.8116,0.8538 C 5.8142,-0.3541 5.5626,0.8293 4.6914,1.2765 4.2998,1.4785 3.8977,1.5641 3.4951,1.5641 2.2358,1.5641 0.9708,0.7272 0,0 Z"
               style="fill:#000000;fill-opacity:1;fill-rule:nonzero;stroke:none"
               id="path54" />
          </g>
          <g
             id="g56"
             transform="translate(6.1154,93.4371)">
            <path
               d="m 0,0 c -1.2905,-0.8386 -2.3993,-1.9474 -3.3078,-3.1913 -0.8758,-1.2066 -1.5094,-2.5903 -1.7237,-4.0671 -0.1118,-0.7641 -0.0513,-1.5654 0.2888,-2.2689 0.191,-0.382 0.5032,-0.8246 0.8805,-1.0529 0.0013,0.0037 0.0026,0.0074 0.0039,0.0111 0.509,-0.343 1.1981,-0.3922 1.7618,-0.0204 0.4054,0.2656 0.6662,0.7175 0.7082,1.1973 0.0411,0.5069 -0.1641,0.951 -0.51,1.3019 -0.0024,0.0354 -0.0041,0.0709 -0.0052,0.1064 0.0022,0.052 0.0064,0.1036 0.0125,0.1556 0.018,0.0947 0.0389,0.1891 0.0629,0.2823 0.0458,0.145 0.0983,0.2879 0.1559,0.4305 0.1412,0.3161 0.294,0.6261 0.4608,0.9253 0.2008,0.3389 0.432,0.6607 0.6666,0.9743 0.311,0.3985 0.6426,0.7797 0.9949,1.1405 0.2714,0.262 0.5639,0.503 0.8647,0.7355 0.2138,0.156 0.4316,0.3031 0.6594,0.4372 0.1823,0.0961 0.37,0.1852 0.5588,0.2659 0.109,0.0388 0.2184,0.073 0.329,0.1035 0.0528,0.0114 0.1061,0.0221 0.1598,0.0309 6e-4,1e-4 0.0013,1e-4 0.002,2e-4 0.6688,-0.4983 1.6041,-0.5261 2.2686,0.0563 0.7128,0.6196 0.8386,1.8123 0.1724,2.5251 C 4.9197,0.6569 4.2349,0.9783 3.4382,1.0669 3.3159,1.0799 3.1936,1.0862 3.0717,1.0862 1.9761,1.0862 0.9013,0.5827 0,0 Z"
               style="fill:#000000;fill-opacity:1;fill-rule:nonzero;stroke:none"
               id="path58" />
          </g>
          <g
             id="g60"
             transform="translate(94.0118,36.2604)">
            <path
               d="m 0,0 c -0.0506,-0.0322 -0.1,-0.0643 -0.1211,-0.0792 -0.0358,-0.0234 -0.0714,-0.047 -0.1071,-0.0705 0,0 -0.0302,-0.02 -0.0302,-0.02 -2.7245,-1.7957 -5.2663,-3.8543 -7.7221,-5.9986 -1.8729,-1.6259 -3.6386,-3.3776 -5.3297,-5.1899 -2.0825,-2.2315 -4.0578,-4.5749 -5.7443,-7.1233 -1.1694,-1.7703 -2.185,-3.6432 -2.8419,-5.6698 -0.2749,-0.8432 -0.4659,-1.733 -0.4938,-2.6182 -0.0209,-0.7019 0.0408,-1.4262 0.3057,-2.0789 3e-4,2e-4 5e-4,3e-4 9e-4,4e-4 0.0037,-0.01 0.0073,-0.0201 0.0112,-0.03 0.0271,-0.0651 0.0562,-0.1295 0.0875,-0.193 0.3867,-0.792 1.4256,-1.0994 2.2176,-0.7873 0.9178,0.3634 1.3417,1.407 1.0063,2.3201 -0.0326,0.0839 -0.0792,0.1631 -0.1165,0.2422 -0.0201,0.0393 -0.0417,0.0773 -0.0647,0.1141 -0.0199,0.0363 -0.0396,0.0725 -0.0591,0.1088 -0.0153,0.0371 -0.0299,0.0744 -0.0439,0.112 -0.013,0.0482 -0.025,0.0966 -0.0359,0.1455 -0.0127,0.0968 -0.0234,0.194 -0.0312,0.2925 -0.0021,0.15 -6e-4,0.3005 0.0082,0.4534 0.0236,0.2149 0.056,0.4279 0.0974,0.6406 0.0741,0.312 0.1606,0.6209 0.2457,0.8818 0.0057,0.0155 0.0116,0.0309 0.0174,0.0464 0,0 0.0019,0.0052 0.0019,0.0052 0.2264,0.6125 0.4907,1.2097 0.7791,1.7951 0.5531,1.0729 1.1824,2.1098 1.7453,2.9473 1.2127,1.7829 2.5533,3.4778 3.9693,5.092 2.0592,2.3248 4.3187,4.4539 6.5977,6.4316 1.4259,1.2305 2.9011,2.4195 4.439,3.5057 0.983,0.6941 1.9707,1.3743 2.963,2.0498 0.6522,0.4426 0.8013,1.3977 0.4286,2.0639 C 1.8982,-0.1102 1.3204,0.2112 0.7476,0.2113 0.488,0.2113 0.2296,0.1453 0,0 Z"
               style="fill:#000000;fill-opacity:1;fill-rule:nonzero;stroke:none"
               id="path62" />
          </g>
          <g
             id="g64"
             transform="translate(97.0372,35.0471)">
            <path
               d="m 0,0 c -0.7547,-0.0932 -1.2719,-0.6709 -1.407,-1.393 -0.0512,-0.2562 -0.0139,-0.5404 -0.0186,-0.8013 -0.0093,-0.4193 -0.0093,-0.8386 -0.0393,-1.2344 -0.0468,-0.5245 -0.1263,-1.0432 -0.2232,-1.5615 -0.156,-0.7536 -0.3511,-1.4957 -0.5889,-2.2297 -0.4495,-1.315 -0.9864,-2.6045 -1.5911,-3.8568 -0.5607,-1.1302 -1.2058,-2.2159 -1.8762,-3.2445 -0.8668,-1.3091 -1.8038,-2.5744 -2.8233,-3.7707 -0.9745,-1.1112 -2.0153,-2.1642 -3.0887,-3.129 -0.0172,-0.0151 -0.0346,-0.0301 -0.0518,-0.0452 0,0 -0.0483,-0.0422 -0.0483,-0.0422 -0.7964,-0.6948 -1.6322,-1.3421 -2.4297,-1.8879 -0.051,-0.0341 -0.1022,-0.068 -0.1535,-0.1018 0,0 -0.0211,-0.0139 -0.0211,-0.0139 -0.8381,-0.5514 -1.7047,-1.0576 -2.6032,-1.5038 -0.5497,-0.2584 -1.1126,-0.4866 -1.6857,-0.6879 -0.4421,-0.1393 -0.894,-0.2598 -1.3465,-0.3524 -0.3286,-0.0549 -0.6602,-0.0969 -0.9946,-0.1194 -0.2789,-0.0133 -0.5553,-0.0092 -0.8314,0.0071 -0.0546,0.0055 -0.1093,0.0115 -0.1628,0.0187 -0.969,0.1212 -1.8822,-0.559 -2.0126,-1.5327 -0.1351,-0.9737 0.5684,-1.8728 1.5327,-2.0126 0.0187,-0.0047 0.0373,-0.0047 0.0559,-0.0093 0.0171,-0.0021 0.0341,-0.0038 0.0511,-0.0053 1.1689,-0.153 2.3783,-6e-4 3.5176,0.2662 1.4209,0.3307 2.7813,0.9271 4.0671,1.6073 1.6865,0.8991 3.2286,2.0452 4.6821,3.2751 1.9288,1.6259 3.6525,3.4615 5.2319,5.4229 1.4162,1.761 2.6648,3.6618 3.7317,5.6557 0.8339,1.5607 1.5653,3.1494 2.0918,4.8405 0.4006,1.2812 0.7081,2.5857 0.8618,3.9134 0.0746,0.629 0.1119,1.2672 0.1025,1.9008 C 1.9241,-2.1011 1.8915,-1.4955 1.7005,-0.997 1.4632,-0.3828 0.8369,0.0119 0.1929,0.012 0.1286,0.012 0.0643,0.008 0,0 Z"
               style="fill:#000000;fill-opacity:1;fill-rule:nonzero;stroke:none"
               id="path66" />
          </g>
        </g>
      </g>
    </g>
  </g>
</svg>
